<svg width="144" height="53" viewBox="0 0 144 53" fill="none" xmlns="http://www.w3.org/2000/svg">
<path d="M67.9136 21.627V25.7495C67.9136 26.2432 67.5192 26.6382 67.0261 26.6382H66.3358C65.8428 26.6382 65.4483 26.2432 65.4483 25.7495V21.627C65.4483 20.3927 64.758 19.7015 63.55 19.7015H62.4407V25.7495C62.4407 26.2432 62.0462 26.6382 61.5777 26.6382H60.8875C60.3944 26.6382 60 26.2432 60 25.7495V10.8887C60 10.395 60.3944 10 60.8875 10H63.9938C67.0261 10 68.0862 11.5305 68.0862 14.8384C68.0862 16.3689 67.815 17.6032 67.0508 18.3685C66.9768 18.4425 66.9275 18.4919 66.8536 18.5659C67.5685 19.3312 67.9136 20.3433 67.9136 21.627ZM62.4407 12.4686V17.2082H63.55C64.9306 17.2082 65.6456 16.517 65.6456 14.8384C65.6456 13.1598 65.2758 12.4686 63.9938 12.4686H62.4407ZM70.6609 10.0247H75.9861C76.4792 10.0247 76.8736 10.4197 76.8736 10.9134V11.5799C76.8736 12.0736 76.4792 12.4686 75.9861 12.4686H72.2141V17.1095H75.3205C75.8136 17.1095 76.208 17.5045 76.208 17.9982V18.6647C76.208 19.1584 75.8136 19.5534 75.3205 19.5534H72.2141V24.219H75.9861C76.4792 24.219 76.8736 24.6139 76.8736 25.1077V25.7742C76.8736 26.2679 76.4792 26.6629 75.9861 26.6629H70.6609C70.1678 26.6629 69.7734 26.2679 69.7734 25.7742V10.9134C69.7734 10.4197 70.1678 10.0247 70.6609 10.0247ZM81.9406 26.6629H79.426C78.9329 26.6629 78.5385 26.2679 78.5385 25.7742V10.9134C78.5385 10.4197 78.9329 10.0247 79.426 10.0247H81.9406C84.899 10.0247 86.2795 11.7033 86.2795 14.9125V21.7751C86.2795 24.9842 84.899 26.6629 81.9406 26.6629ZM81.9406 12.4686H80.9791V24.219H81.9406C83.2472 24.219 83.7896 23.429 83.7896 21.7751V14.9125C83.7896 13.2585 83.2472 12.4686 81.9406 12.4686ZM89.1747 10.0247H94.4998C94.9929 10.0247 95.3873 10.4197 95.3873 10.9134V11.5799C95.3873 12.0736 94.9929 12.4686 94.4998 12.4686H90.7279V17.1095H93.8342C94.3272 17.1095 94.7217 17.5045 94.7217 17.9982V18.6647C94.7217 19.1584 94.3272 19.5534 93.8342 19.5534H90.7279V24.219H94.4998C94.9929 24.219 95.3873 24.6139 95.3873 25.1077V25.7742C95.3873 26.2679 94.9929 26.6629 94.4998 26.6629H89.1747C88.6817 26.6629 88.2872 26.2679 88.2872 25.7742V10.9134C88.2872 10.4197 88.6817 10.0247 89.1747 10.0247Z" fill="white"/>
<path d="M60.8897 29.5788H65.8819C66.3442 29.5788 66.7139 29.9491 66.7139 30.412V31.0368C66.7139 31.4997 66.3442 31.87 65.8819 31.87H62.3688V36.2208H64.9574C65.4197 36.2208 65.7895 36.5911 65.7895 37.054V37.6788C65.7895 38.1417 65.4197 38.512 64.9574 38.512H62.3688V44.344C62.3688 44.8068 61.9759 45.1771 61.5368 45.1771H60.8897C60.4274 45.1771 60.0576 44.8068 60.0576 44.344V30.412C60.0576 29.9491 60.4274 29.5788 60.8897 29.5788ZM75.8756 40.456V44.3208C75.8756 44.7837 75.5058 45.154 75.0435 45.154H74.3964C73.9342 45.154 73.5644 44.7837 73.5644 44.3208V40.456C73.5644 39.2988 72.9173 38.6508 71.7848 38.6508H70.7447V44.3208C70.7447 44.7837 70.3749 45.154 69.9358 45.154H69.2886C68.8264 45.154 68.4566 44.7837 68.4566 44.3208V30.3888C68.4566 29.926 68.8264 29.5557 69.2886 29.5557H72.2008C75.0435 29.5557 76.0373 30.9906 76.0373 34.0917C76.0373 35.5266 75.7831 36.6837 75.0666 37.4011C74.9973 37.4706 74.9511 37.5168 74.8817 37.5863C75.552 38.3037 75.8756 39.2526 75.8756 40.456ZM70.7447 31.87V36.3134H71.7848C73.0791 36.3134 73.7493 35.6654 73.7493 34.0917C73.7493 32.518 73.4026 31.87 72.2008 31.87H70.7447ZM77.6421 40.6411V34.0917C77.6421 31.1757 78.9133 29.5788 81.4325 29.5788C83.9749 29.5788 85.2229 31.1526 85.2229 34.0917V40.6411C85.2229 42.4694 84.7376 43.534 84.0211 44.2514C83.2584 44.992 82.2877 45.1771 81.4325 45.1771C80.6005 45.1771 79.6298 44.992 78.8671 44.2514C78.1506 43.534 77.6421 42.4694 77.6421 40.6411ZM79.9533 34.0917V40.6411C79.9533 42.1686 80.4387 42.886 81.4325 42.886C82.4032 42.886 82.9117 42.2148 82.9117 40.6411V34.0917C82.9117 32.5411 82.4263 31.87 81.4325 31.87C80.4156 31.87 79.9533 32.5874 79.9533 34.0917ZM93.85 45.1771H93.3184C93.041 45.1771 92.6481 44.9226 92.5557 44.668L89.3431 36.7068V44.344C89.3431 44.8068 88.9502 45.1771 88.511 45.1771H87.8408C87.4016 45.1771 87.0087 44.8068 87.0087 44.344V30.412C87.0087 29.9491 87.4016 29.5788 87.8408 29.5788H88.3955C88.6959 29.5788 89.0657 29.8334 89.1582 30.088L92.3708 38.0491V30.412C92.3708 29.9491 92.7406 29.5788 93.2028 29.5788H93.85C94.3122 29.5788 94.682 29.9491 94.682 30.412V44.344C94.682 44.8068 94.3122 45.1771 93.85 45.1771ZM96.4185 31.0368V30.3888C96.4185 29.926 96.7883 29.5557 97.2505 29.5557H103.306C103.768 29.5557 104.138 29.926 104.138 30.3888V31.0368C104.138 31.4997 103.768 31.87 103.306 31.87H101.411V44.3208C101.411 44.7837 101.041 45.154 100.579 45.154H99.9547C99.4924 45.154 99.1226 44.7837 99.1226 44.3208V31.87H97.2505C96.7883 31.87 96.4185 31.4997 96.4185 31.0368ZM106.596 29.5788H111.589C112.051 29.5788 112.421 29.9491 112.421 30.412V31.0368C112.421 31.4997 112.051 31.87 111.589 31.87H108.052V36.2208H110.965C111.427 36.2208 111.797 36.5911 111.797 37.054V37.6788C111.797 38.1417 111.427 38.512 110.965 38.512H108.052V42.886H111.589C112.051 42.886 112.421 43.2563 112.421 43.7191V44.344C112.421 44.8068 112.051 45.1771 111.589 45.1771H106.596C106.134 45.1771 105.764 44.8068 105.764 44.344V30.412C105.764 29.9491 106.134 29.5788 106.596 29.5788ZM116.155 30.412V44.344C116.155 44.8068 115.762 45.1771 115.323 45.1771H114.676C114.213 45.1771 113.844 44.8068 113.844 44.344V30.412C113.844 29.9491 114.213 29.5788 114.676 29.5788H115.323C115.762 29.5788 116.155 29.9491 116.155 30.412ZM125.169 40.456V44.3208C125.169 44.7837 124.8 45.154 124.337 45.154H123.69C123.228 45.154 122.858 44.7837 122.858 44.3208V40.456C122.858 39.2988 122.211 38.6508 121.078 38.6508H120.038V44.3208C120.038 44.7837 119.669 45.154 119.23 45.154H118.582C118.12 45.154 117.75 44.7837 117.75 44.3208V30.3888C117.75 29.926 118.12 29.5557 118.582 29.5557H121.495C124.337 29.5557 125.331 30.9906 125.331 34.0917C125.331 35.5266 125.077 36.6837 124.36 37.4011C124.291 37.4706 124.245 37.5168 124.176 37.5863C124.846 38.3037 125.169 39.2526 125.169 40.456ZM120.038 31.87V36.3134H121.078C122.373 36.3134 123.043 35.6654 123.043 34.0917C123.043 32.518 122.696 31.87 121.495 31.87H120.038ZM132.32 44.5291L131.534 40.9188H129.177L128.368 44.5291C128.276 44.8763 127.906 45.1771 127.559 45.1771H126.889C126.334 45.1771 125.964 44.7143 126.08 44.182L127.189 39.2757L129.293 30.2268C129.385 29.8797 129.755 29.5788 130.102 29.5788H130.61C130.957 29.5788 131.35 29.8797 131.419 30.2268L134.608 44.1588C134.724 44.6911 134.354 45.1771 133.799 45.1771H133.129C132.783 45.1771 132.413 44.8763 132.32 44.5291ZM130.356 34.9248L129.709 38.6277H131.003C130.749 37.5168 130.795 36.892 130.356 34.9248ZM135.694 40.6411V40.3403C135.694 39.8774 136.064 39.5071 136.526 39.5071H137.173C137.612 39.5071 138.005 39.8774 138.005 40.3403V40.6411C138.005 41.752 138.213 42.2843 138.537 42.562C138.791 42.8166 139.184 42.8628 139.507 42.8628C140.478 42.8628 141.01 42.4463 141.01 41.2197C141.01 40.132 139.947 39.2757 138.814 38.3963V38.4194C137.289 37.216 135.694 35.9663 135.694 33.6751C135.694 31.06 137.058 29.5557 139.507 29.5557C142.004 29.5557 143.321 31.1526 143.321 34.0917V34.4157C143.321 34.8786 142.951 35.2488 142.489 35.2488H141.842C141.38 35.2488 141.01 34.8786 141.01 34.4157V34.0917C141.01 32.5643 140.524 31.87 139.507 31.87C138.537 31.87 138.005 32.4023 138.005 33.6057C138.005 34.786 139.138 35.6886 140.27 36.568H140.247C141.772 37.7483 143.321 38.9286 143.321 41.1734C143.321 43.7654 141.957 45.154 139.507 45.154C136.965 45.154 135.694 43.6728 135.694 40.6411Z" fill="white"/>
<path d="M107.451 21.8245V21.5035C107.451 21.0098 107.846 20.6149 108.339 20.6149H109.029C109.497 20.6149 109.916 21.0098 109.916 21.5035V21.8245C109.916 23.0094 110.138 23.5771 110.483 23.8734C110.755 24.1449 111.174 24.1943 111.519 24.1943C112.554 24.1943 113.121 23.7499 113.121 22.4416C113.121 21.2814 111.987 20.368 110.779 19.4299V19.4546C109.152 18.171 107.451 16.8379 107.451 14.3941C107.451 11.6046 108.906 10 111.519 10C114.181 10 115.587 11.7033 115.587 14.8384V15.184C115.587 15.6777 115.192 16.0727 114.699 16.0727H114.009C113.516 16.0727 113.121 15.6777 113.121 15.184V14.8384C113.121 13.2091 112.604 12.4686 111.519 12.4686C110.483 12.4686 109.916 13.0363 109.916 14.32C109.916 15.579 111.124 16.5417 112.332 17.4798H112.308C113.935 18.7387 115.587 19.9977 115.587 22.3922C115.587 25.157 114.132 26.6382 111.519 26.6382C108.807 26.6382 107.451 25.0583 107.451 21.8245ZM121.989 10.0247H127.314C127.807 10.0247 128.201 10.4197 128.201 10.9134V11.5799C128.201 12.0736 127.807 12.4686 127.314 12.4686H123.542V17.1095H126.648C127.141 17.1095 127.536 17.5045 127.536 17.9982V18.6647C127.536 19.1584 127.141 19.5534 126.648 19.5534H123.542V24.219H127.314C127.807 24.219 128.201 24.6139 128.201 25.1077V25.7742C128.201 26.2679 127.807 26.6629 127.314 26.6629H121.989C121.496 26.6629 121.101 26.2679 121.101 25.7742V10.9134C121.101 10.4197 121.496 10.0247 121.989 10.0247ZM138.304 26.6629H137.761C137.392 26.6629 136.997 26.3419 136.923 25.9717L136.085 20.4174V25.7742C136.085 26.2679 135.666 26.6629 135.197 26.6629H134.507C134.014 26.6629 133.62 26.2679 133.62 25.7742V10.9134C133.62 10.4197 134.014 10.0247 134.507 10.0247H135.247C135.617 10.0247 136.011 10.3456 136.085 10.7159L138.033 20.6642L139.955 10.7159C140.029 10.3456 140.449 10.0247 140.818 10.0247H141.558C142.051 10.0247 142.445 10.4197 142.445 10.9134V25.7742C142.445 26.2679 142.051 26.6629 141.558 26.6629H140.868C140.375 26.6629 139.98 26.2679 139.98 25.7742V20.4667L139.167 25.947C139.068 26.3419 138.674 26.6629 138.304 26.6629Z" fill="white"/>
<path d="M38.4469 4.42783L31 4.01265L32.5669 0L38.4469 4.42783Z" fill="white"/>
<mask id="path-5-inside-1_476_1748" fill="white">
<path d="M33.1892 2.66567C33.2871 2.33415 33.0979 1.98522 32.7641 1.89528C28.0598 0.627741 23.0894 0.70652 18.4209 2.12919C13.5526 3.61275 9.22679 6.49243 5.97968 10.4113C2.73256 14.3301 0.706942 19.1157 0.153944 24.1749C-0.399054 29.234 0.544883 34.3442 2.86874 38.872C5.19259 43.3998 8.79417 47.146 13.227 49.6462C17.6598 52.1464 22.7289 53.2907 27.8059 52.9372C32.8829 52.5837 37.7446 50.748 41.7881 47.6576C45.6657 44.694 48.6275 40.7016 50.3403 36.1405C50.4618 35.8169 50.2887 35.4597 49.9622 35.346C49.6358 35.2323 49.2797 35.4052 49.1578 35.7286C47.5259 40.0584 44.7109 43.8482 41.028 46.663C37.1791 49.6046 32.5515 51.3519 27.719 51.6884C22.8864 52.0249 18.0614 50.9357 13.842 48.5558C9.62258 46.176 6.19441 42.6102 3.98244 38.3004C1.77048 33.9906 0.871986 29.1265 1.39836 24.3109C1.92473 19.4953 3.85282 14.9401 6.9436 11.21C10.0344 7.47981 14.1519 4.73878 18.7858 3.32665C23.2199 1.97541 27.9402 1.89782 32.4093 3.09618C32.7432 3.18571 33.0912 2.99718 33.1892 2.66567Z"/>
</mask>
<path d="M33.1892 2.66567C33.2871 2.33415 33.0979 1.98522 32.7641 1.89528C28.0598 0.627741 23.0894 0.70652 18.4209 2.12919C13.5526 3.61275 9.22679 6.49243 5.97968 10.4113C2.73256 14.3301 0.706942 19.1157 0.153944 24.1749C-0.399054 29.234 0.544883 34.3442 2.86874 38.872C5.19259 43.3998 8.79417 47.146 13.227 49.6462C17.6598 52.1464 22.7289 53.2907 27.8059 52.9372C32.8829 52.5837 37.7446 50.748 41.7881 47.6576C45.6657 44.694 48.6275 40.7016 50.3403 36.1405C50.4618 35.8169 50.2887 35.4597 49.9622 35.346C49.6358 35.2323 49.2797 35.4052 49.1578 35.7286C47.5259 40.0584 44.7109 43.8482 41.028 46.663C37.1791 49.6046 32.5515 51.3519 27.719 51.6884C22.8864 52.0249 18.0614 50.9357 13.842 48.5558C9.62258 46.176 6.19441 42.6102 3.98244 38.3004C1.77048 33.9906 0.871986 29.1265 1.39836 24.3109C1.92473 19.4953 3.85282 14.9401 6.9436 11.21C10.0344 7.47981 14.1519 4.73878 18.7858 3.32665C23.2199 1.97541 27.9402 1.89782 32.4093 3.09618C32.7432 3.18571 33.0912 2.99718 33.1892 2.66567Z" stroke="white" stroke-width="4" mask="url(#path-5-inside-1_476_1748)"/>
<mask id="path-6-inside-2_476_1748" fill="white">
<path d="M19.7747 46.7659C19.6637 47.1185 19.8593 47.4955 20.2152 47.5955C24.0303 48.667 28.0728 48.659 31.8907 47.5653C35.9234 46.4102 39.5275 44.0949 42.2546 40.9074C44.9817 37.72 46.7116 33.8012 47.2289 29.6383C47.7463 25.4755 47.0283 21.2524 45.1643 17.4944C43.3004 13.7364 40.3727 10.6094 36.7454 8.50225C33.1182 6.39513 28.9515 5.40094 24.7636 5.64335C20.5758 5.88575 16.5516 7.35406 13.1917 9.86563C10.0107 12.2434 7.55808 15.457 6.10264 19.1427C5.96685 19.4866 6.14859 19.8704 6.49652 19.9954C6.84445 20.1203 7.22675 19.9391 7.36325 19.5955C8.72948 16.1567 11.0226 13.1585 13.9932 10.9379C17.1429 8.58353 20.9152 7.20711 24.841 6.97987C28.7668 6.75263 32.6727 7.6846 36.073 9.65986C39.4732 11.6351 42.2177 14.5665 43.965 18.0893C45.7123 21.6121 46.3853 25.5709 45.9004 29.4732C45.4154 33.3755 43.7938 37.0492 41.2374 40.0371C38.6809 43.0251 35.3024 45.1954 31.5221 46.2783C27.9565 47.2997 24.182 47.311 20.6175 46.3179C20.2614 46.2186 19.8858 46.4133 19.7747 46.7659Z"/>
</mask>
<path d="M19.7747 46.7659C19.6637 47.1185 19.8593 47.4955 20.2152 47.5955C24.0303 48.667 28.0728 48.659 31.8907 47.5653C35.9234 46.4102 39.5275 44.0949 42.2546 40.9074C44.9817 37.72 46.7116 33.8012 47.2289 29.6383C47.7463 25.4755 47.0283 21.2524 45.1643 17.4944C43.3004 13.7364 40.3727 10.6094 36.7454 8.50225C33.1182 6.39513 28.9515 5.40094 24.7636 5.64335C20.5758 5.88575 16.5516 7.35406 13.1917 9.86563C10.0107 12.2434 7.55808 15.457 6.10264 19.1427C5.96685 19.4866 6.14859 19.8704 6.49652 19.9954C6.84445 20.1203 7.22675 19.9391 7.36325 19.5955C8.72948 16.1567 11.0226 13.1585 13.9932 10.9379C17.1429 8.58353 20.9152 7.20711 24.841 6.97987C28.7668 6.75263 32.6727 7.6846 36.073 9.65986C39.4732 11.6351 42.2177 14.5665 43.965 18.0893C45.7123 21.6121 46.3853 25.5709 45.9004 29.4732C45.4154 33.3755 43.7938 37.0492 41.2374 40.0371C38.6809 43.0251 35.3024 45.1954 31.5221 46.2783C27.9565 47.2997 24.182 47.311 20.6175 46.3179C20.2614 46.2186 19.8858 46.4133 19.7747 46.7659Z" stroke="white" stroke-width="4" mask="url(#path-6-inside-2_476_1748)"/>
<circle cx="25.6711" cy="27.3291" r="17.1139" fill="#D05D07"/>
<circle cx="25.6711" cy="27.3291" r="16.1139" stroke="white" stroke-width="2"/>
<path d="M33.2403 30.2911L34.8859 23.0506L35.8732 23.3797L39.4935 26.6709L41.4682 30.2911L40.4808 33.5823L37.5188 35.557L30.9365 36.2152L31.2656 35.557L33.2403 30.2911Z" fill="#183472"/>
<path d="M23.0378 34.8987L30.2783 36.5443L29.9492 37.5316L26.6581 41.1519L23.0378 43.1266L19.7467 42.1392L17.772 39.1772L17.1138 32.5949L17.772 32.9241L23.0378 34.8987Z" fill="#183472"/>
<path d="M18.101 24.038L16.4554 31.2785L15.4681 30.9494L11.8478 27.6582L9.87314 24.038L10.8605 20.7468L13.8225 18.7721L20.4048 18.1139L20.0757 18.7721L18.101 24.038Z" fill="#183472"/>
<path d="M28.9622 19.7595L21.7217 18.1139L22.0508 17.1266L25.3419 13.5063L28.9622 11.5316L32.2533 12.519L34.228 15.481L34.8862 22.0633L34.228 21.7342L28.9622 19.7595Z" fill="#183472"/>
<path d="M33.2146 29.5428C31.9707 33.9675 29.9412 37.668 27.7131 40.0808C25.4435 42.5384 23.1953 43.445 21.429 42.9484C19.6627 42.4518 18.2163 40.5065 17.5598 37.2263C16.9154 34.006 17.1115 29.7901 18.3555 25.3653C19.5995 20.9405 21.6289 17.24 23.8571 14.8272C26.1266 12.3697 28.3748 11.4631 30.1411 11.9597C31.9075 12.4563 33.3539 14.4015 34.0103 17.6817C34.6548 20.9021 34.4586 25.118 33.2146 29.5428Z" stroke="white" stroke-width="2"/>
<path d="M23.3405 34.382C19.0622 32.9091 15.5456 30.6922 13.3084 28.3461C11.0321 25.9589 10.2724 23.6695 10.8722 21.9273C11.472 20.1851 13.4801 18.8485 16.7435 18.3685C19.9507 17.8968 24.0868 18.3146 28.3651 19.7875C32.6434 21.2605 36.16 23.4773 38.3972 25.8234C40.6735 28.2106 41.4332 30.5001 40.8334 32.2423C40.2335 33.9845 38.2255 35.3211 34.9621 35.801C31.7549 36.2727 27.6188 35.8549 23.3405 34.382Z" stroke="white" stroke-width="2"/>
<line x1="10.8418" y1="21.7708" x2="41.1202" y2="31.6442" stroke="white" stroke-width="2"/>
<line x1="20.7672" y1="42.8283" x2="30.6406" y2="11.2334" stroke="white" stroke-width="2"/>
<path d="M5.0034 25.619L4.91855 18.4269L9.02459 19.6555L5.0034 25.619Z" fill="white"/>
</svg>
