<svg width="151" height="54" viewBox="0 0 151 54" fill="none" xmlns="http://www.w3.org/2000/svg">
<path d="M70.9136 21.627V25.7495C70.9136 26.2432 70.5192 26.6382 70.0261 26.6382H69.3358C68.8428 26.6382 68.4483 26.2432 68.4483 25.7495V21.627C68.4483 20.3927 67.758 19.7015 66.55 19.7015H65.4407V25.7495C65.4407 26.2432 65.0462 26.6382 64.5777 26.6382H63.8875C63.3944 26.6382 63 26.2432 63 25.7495V10.8887C63 10.395 63.3944 10 63.8875 10H66.9938C70.0261 10 71.0862 11.5305 71.0862 14.8384C71.0862 16.3689 70.815 17.6032 70.0508 18.3685C69.9768 18.4425 69.9275 18.4919 69.8536 18.5659C70.5685 19.3312 70.9136 20.3433 70.9136 21.627ZM65.4407 12.4686V17.2082H66.55C67.9306 17.2082 68.6456 16.517 68.6456 14.8384C68.6456 13.1598 68.2758 12.4686 66.9938 12.4686H65.4407ZM73.6609 10.0247H78.9861C79.4792 10.0247 79.8736 10.4197 79.8736 10.9134V11.5799C79.8736 12.0736 79.4792 12.4686 78.9861 12.4686H75.2141V17.1095H78.3205C78.8136 17.1095 79.208 17.5045 79.208 17.9982V18.6647C79.208 19.1584 78.8136 19.5534 78.3205 19.5534H75.2141V24.219H78.9861C79.4792 24.219 79.8736 24.6139 79.8736 25.1077V25.7742C79.8736 26.2679 79.4792 26.6629 78.9861 26.6629H73.6609C73.1678 26.6629 72.7734 26.2679 72.7734 25.7742V10.9134C72.7734 10.4197 73.1678 10.0247 73.6609 10.0247ZM84.9406 26.6629H82.426C81.9329 26.6629 81.5385 26.2679 81.5385 25.7742V10.9134C81.5385 10.4197 81.9329 10.0247 82.426 10.0247H84.9406C87.899 10.0247 89.2795 11.7033 89.2795 14.9125V21.7751C89.2795 24.9842 87.899 26.6629 84.9406 26.6629ZM84.9406 12.4686H83.9791V24.219H84.9406C86.2472 24.219 86.7896 23.429 86.7896 21.7751V14.9125C86.7896 13.2585 86.2472 12.4686 84.9406 12.4686ZM92.1747 10.0247H97.4998C97.9929 10.0247 98.3873 10.4197 98.3873 10.9134V11.5799C98.3873 12.0736 97.9929 12.4686 97.4998 12.4686H93.7279V17.1095H96.8342C97.3272 17.1095 97.7217 17.5045 97.7217 17.9982V18.6647C97.7217 19.1584 97.3272 19.5534 96.8342 19.5534H93.7279V24.219H97.4998C97.9929 24.219 98.3873 24.6139 98.3873 25.1077V25.7742C98.3873 26.2679 97.9929 26.6629 97.4998 26.6629H92.1747C91.6817 26.6629 91.2872 26.2679 91.2872 25.7742V10.9134C91.2872 10.4197 91.6817 10.0247 92.1747 10.0247Z" fill="white"/>
<path d="M63.9326 29.916H68.9249C69.3871 29.916 69.7569 30.2863 69.7569 30.7491V31.374C69.7569 31.8369 69.3871 32.2071 68.9249 32.2071H65.4118V36.558H68.0004C68.4626 36.558 68.8324 36.9283 68.8324 37.3911V38.016C68.8324 38.4789 68.4626 38.8491 68.0004 38.8491H65.4118V44.6811C65.4118 45.144 65.0189 45.5143 64.5798 45.5143H63.9326C63.4704 45.5143 63.1006 45.144 63.1006 44.6811V30.7491C63.1006 30.2863 63.4704 29.916 63.9326 29.916ZM78.9185 40.7931V44.658C78.9185 45.1209 78.5487 45.4911 78.0865 45.4911H77.4393C76.9772 45.4911 76.6074 45.1209 76.6074 44.658V40.7931C76.6074 39.636 75.9602 38.988 74.8277 38.988H73.7877V44.658C73.7877 45.1209 73.4179 45.4911 72.9788 45.4911H72.3316C71.8694 45.4911 71.4996 45.1209 71.4996 44.658V30.726C71.4996 30.2631 71.8694 29.8929 72.3316 29.8929H75.2438C78.0865 29.8929 79.0803 31.3277 79.0803 34.4289C79.0803 35.8637 78.8261 37.0209 78.1096 37.7383C78.0403 37.8077 77.994 37.854 77.9247 37.9234C78.595 38.6409 78.9185 39.5897 78.9185 40.7931ZM73.7877 32.2071V36.6506H74.8277C76.122 36.6506 76.7923 36.0026 76.7923 34.4289C76.7923 32.8551 76.4456 32.2071 75.2438 32.2071H73.7877ZM80.6851 40.9783V34.4289C80.6851 31.5129 81.9563 29.916 84.4755 29.916C87.0178 29.916 88.2659 31.4897 88.2659 34.4289V40.9783C88.2659 42.8066 87.7805 43.8711 87.0641 44.5886C86.3014 45.3291 85.3306 45.5143 84.4755 45.5143C83.6434 45.5143 82.6727 45.3291 81.91 44.5886C81.1935 43.8711 80.6851 42.8066 80.6851 40.9783ZM82.9963 34.4289V40.9783C82.9963 42.5057 83.4817 43.2231 84.4755 43.2231C85.4462 43.2231 85.9547 42.552 85.9547 40.9783V34.4289C85.9547 32.8783 85.4693 32.2071 84.4755 32.2071C83.4585 32.2071 82.9963 32.9246 82.9963 34.4289ZM96.8929 45.5143H96.3613C96.084 45.5143 95.6911 45.2597 95.5986 45.0051L92.386 37.044V44.6811C92.386 45.144 91.9931 45.5143 91.554 45.5143H90.8837C90.4446 45.5143 90.0517 45.144 90.0517 44.6811V30.7491C90.0517 30.2863 90.4446 29.916 90.8837 29.916H91.4384C91.7389 29.916 92.1087 30.1706 92.2011 30.4251L95.4137 38.3863V30.7491C95.4137 30.2863 95.7835 29.916 96.2458 29.916H96.8929C97.3552 29.916 97.725 30.2863 97.725 30.7491V44.6811C97.725 45.144 97.3552 45.5143 96.8929 45.5143ZM99.4615 31.374V30.726C99.4615 30.2631 99.8313 29.8929 100.294 29.8929H106.349C106.811 29.8929 107.181 30.2631 107.181 30.726V31.374C107.181 31.8369 106.811 32.2071 106.349 32.2071H104.454V44.658C104.454 45.1209 104.084 45.4911 103.622 45.4911H102.998C102.535 45.4911 102.166 45.1209 102.166 44.658V32.2071H100.294C99.8313 32.2071 99.4615 31.8369 99.4615 31.374ZM109.639 29.916H114.632C115.094 29.916 115.464 30.2863 115.464 30.7491V31.374C115.464 31.8369 115.094 32.2071 114.632 32.2071H111.095V36.558H114.008C114.47 36.558 114.84 36.9283 114.84 37.3911V38.016C114.84 38.4789 114.47 38.8491 114.008 38.8491H111.095V43.2231H114.632C115.094 43.2231 115.464 43.5934 115.464 44.0563V44.6811C115.464 45.144 115.094 45.5143 114.632 45.5143H109.639C109.177 45.5143 108.807 45.144 108.807 44.6811V30.7491C108.807 30.2863 109.177 29.916 109.639 29.916ZM119.198 30.7491V44.6811C119.198 45.144 118.805 45.5143 118.366 45.5143H117.719C117.256 45.5143 116.887 45.144 116.887 44.6811V30.7491C116.887 30.2863 117.256 29.916 117.719 29.916H118.366C118.805 29.916 119.198 30.2863 119.198 30.7491ZM128.212 40.7931V44.658C128.212 45.1209 127.843 45.4911 127.38 45.4911H126.733C126.271 45.4911 125.901 45.1209 125.901 44.658V40.7931C125.901 39.636 125.254 38.988 124.121 38.988H123.081V44.658C123.081 45.1209 122.712 45.4911 122.272 45.4911H121.625C121.163 45.4911 120.793 45.1209 120.793 44.658V30.726C120.793 30.2631 121.163 29.8929 121.625 29.8929H124.537C127.38 29.8929 128.374 31.3277 128.374 34.4289C128.374 35.8637 128.12 37.0209 127.403 37.7383C127.334 37.8077 127.288 37.854 127.218 37.9234C127.889 38.6409 128.212 39.5897 128.212 40.7931ZM123.081 32.2071V36.6506H124.121C125.416 36.6506 126.086 36.0026 126.086 34.4289C126.086 32.8551 125.739 32.2071 124.537 32.2071H123.081ZM135.363 44.8663L134.577 41.256H132.22L131.411 44.8663C131.319 45.2134 130.949 45.5143 130.602 45.5143H129.932C129.377 45.5143 129.007 45.0514 129.123 44.5191L130.232 39.6129L132.336 30.564C132.428 30.2169 132.798 29.916 133.144 29.916H133.653C134 29.916 134.393 30.2169 134.462 30.564L137.651 44.496C137.767 45.0283 137.397 45.5143 136.842 45.5143H136.172C135.826 45.5143 135.456 45.2134 135.363 44.8663ZM133.399 35.262L132.752 38.9649H134.046C133.792 37.854 133.838 37.2291 133.399 35.262ZM138.737 40.9783V40.6774C138.737 40.2146 139.107 39.8443 139.569 39.8443H140.216C140.655 39.8443 141.048 40.2146 141.048 40.6774V40.9783C141.048 42.0891 141.256 42.6214 141.58 42.8991C141.834 43.1537 142.227 43.2 142.55 43.2C143.521 43.2 144.053 42.7834 144.053 41.5569C144.053 40.4691 142.99 39.6129 141.857 38.7334V38.7566C140.332 37.5531 138.737 36.3034 138.737 34.0123C138.737 31.3971 140.1 29.8929 142.55 29.8929C145.047 29.8929 146.364 31.4897 146.364 34.4289V34.7529C146.364 35.2157 145.994 35.586 145.532 35.586H144.885C144.422 35.586 144.053 35.2157 144.053 34.7529V34.4289C144.053 32.9014 143.567 32.2071 142.55 32.2071C141.58 32.2071 141.048 32.7394 141.048 33.9429C141.048 35.1231 142.181 36.0257 143.313 36.9051H143.29C144.815 38.0854 146.364 39.2657 146.364 41.5106C146.364 44.1026 145 45.4911 142.55 45.4911C140.008 45.4911 138.737 44.01 138.737 40.9783Z" fill="white"/>
<path d="M110.494 22.1616V21.8407C110.494 21.347 110.889 20.952 111.382 20.952H112.072C112.54 20.952 112.959 21.347 112.959 21.8407V22.1616C112.959 23.3465 113.181 23.9143 113.526 24.2105C113.798 24.4821 114.217 24.5314 114.562 24.5314C115.597 24.5314 116.164 24.0871 116.164 22.7787C116.164 21.6185 115.03 20.7051 113.822 19.7671V19.7918C112.195 18.5081 110.494 17.1751 110.494 14.7312C110.494 11.9417 111.949 10.3371 114.562 10.3371C117.224 10.3371 118.63 12.0405 118.63 15.1755V15.5211C118.63 16.0149 118.235 16.4098 117.742 16.4098H117.052C116.559 16.4098 116.164 16.0149 116.164 15.5211V15.1755C116.164 13.5463 115.647 12.8057 114.562 12.8057C113.526 12.8057 112.959 13.3735 112.959 14.6571C112.959 15.9161 114.167 16.8789 115.375 17.8169H115.351C116.978 19.0759 118.63 20.3349 118.63 22.7294C118.63 25.4942 117.175 26.9753 114.562 26.9753C111.85 26.9753 110.494 25.3954 110.494 22.1616ZM125.032 10.3618H130.357C130.85 10.3618 131.244 10.7568 131.244 11.2505V11.917C131.244 12.4107 130.85 12.8057 130.357 12.8057H126.585V17.4466H129.691C130.184 17.4466 130.579 17.8416 130.579 18.3353V19.0018C130.579 19.4955 130.184 19.8905 129.691 19.8905H126.585V24.5561H130.357C130.85 24.5561 131.244 24.9511 131.244 25.4448V26.1113C131.244 26.605 130.85 27 130.357 27H125.032C124.539 27 124.144 26.605 124.144 26.1113V11.2505C124.144 10.7568 124.539 10.3618 125.032 10.3618ZM141.347 27H140.804C140.435 27 140.04 26.6791 139.966 26.3088L139.128 20.7545V26.1113C139.128 26.605 138.709 27 138.24 27H137.55C137.057 27 136.663 26.605 136.663 26.1113V11.2505C136.663 10.7568 137.057 10.3618 137.55 10.3618H138.29C138.659 10.3618 139.054 10.6827 139.128 11.053L141.075 21.0014L142.998 11.053C143.072 10.6827 143.491 10.3618 143.861 10.3618H144.601C145.094 10.3618 145.488 10.7568 145.488 11.2505V26.1113C145.488 26.605 145.094 27 144.601 27H143.911C143.418 27 143.023 26.605 143.023 26.1113V20.8039L142.21 26.2841C142.111 26.6791 141.716 27 141.347 27Z" fill="white"/>
<mask id="mask0_476_1504" style="mask-type:luminance" maskUnits="userSpaceOnUse" x="0" y="1" width="52" height="53">
<path d="M34.2593 3.53582C34.3618 3.19962 34.1698 2.84359 33.8313 2.75514C28.9727 1.48567 23.8388 1.56383 19.0169 2.98719C13.9911 4.47075 9.52535 7.35043 6.17316 11.2692C2.82098 15.1881 0.729833 19.9737 0.158943 25.0328C-0.411946 30.092 0.56253 35.2022 2.96157 39.73C5.3606 44.2578 9.07871 48.004 13.655 50.5042C18.2312 53.0044 23.4643 54.1487 28.7055 53.7952C33.9468 53.4417 38.9658 51.606 43.1401 48.5156C47.1341 45.5587 50.1869 41.5778 51.957 37.0296C52.0886 36.6915 51.9071 36.3148 51.5646 36.1993C51.2332 36.0875 50.8744 36.2625 50.747 36.5898C49.0621 40.9182 46.1565 44.7069 42.3554 47.521C38.382 50.4626 33.6047 52.2099 28.6158 52.5464C23.6269 52.8829 18.6458 51.7937 14.2898 49.4138C9.93395 47.034 6.39483 43.4682 4.11131 39.1584C1.82777 34.8487 0.900219 29.9845 1.44362 25.1689C1.98702 20.3533 3.97749 15.7981 7.16827 12.068C10.359 8.33779 14.6098 5.59678 19.3936 4.18465C23.9816 2.83033 28.8664 2.75547 33.4896 3.96242C33.8185 4.0483 34.1597 3.86254 34.2593 3.53582Z" fill="white"/>
</mask>
<g mask="url(#mask0_476_1504)">
<path d="M34.2593 3.53582C34.3618 3.19962 34.1698 2.84359 33.8313 2.75514C28.9727 1.48567 23.8388 1.56383 19.0169 2.98719C13.9911 4.47075 9.52535 7.35043 6.17316 11.2692C2.82098 15.1881 0.729833 19.9737 0.158943 25.0328C-0.411946 30.092 0.56253 35.2022 2.96157 39.73C5.3606 44.2578 9.07871 48.004 13.655 50.5042C18.2312 53.0044 23.4643 54.1487 28.7055 53.7952C33.9468 53.4417 38.9658 51.606 43.1401 48.5156C47.1341 45.5587 50.1869 41.5778 51.957 37.0296C52.0886 36.6915 51.9071 36.3148 51.5646 36.1993C51.2332 36.0875 50.8744 36.2625 50.747 36.5898C49.0621 40.9182 46.1565 44.7069 42.3554 47.521C38.382 50.4626 33.6047 52.2099 28.6158 52.5464C23.6269 52.8829 18.6458 51.7937 14.2898 49.4138C9.93395 47.034 6.39483 43.4682 4.11131 39.1584C1.82777 34.8487 0.900219 29.9845 1.44362 25.1689C1.98702 20.3533 3.97749 15.7981 7.16827 12.068C10.359 8.33779 14.6098 5.59678 19.3936 4.18465C23.9816 2.83033 28.8664 2.75547 33.4896 3.96242C33.8185 4.0483 34.1597 3.86254 34.2593 3.53582Z" stroke="white" stroke-width="4"/>
</g>
<mask id="mask1_476_1504" style="mask-type:luminance" maskUnits="userSpaceOnUse" x="6" y="6" width="44" height="44">
<path d="M20.5127 47.6318C20.3958 47.9898 20.5954 48.3751 20.9585 48.4736C24.917 49.5474 29.1119 49.5399 33.0736 48.4452C37.2558 47.2895 40.9936 44.9731 43.8218 41.7842C46.6501 38.5953 48.4441 34.6746 48.9806 30.5098C49.5172 26.345 48.7726 22.1199 46.8395 18.3602C44.9064 14.6004 41.8701 11.4718 38.1083 9.36376C34.3466 7.25565 30.0253 6.26099 25.6821 6.50352C21.3389 6.74604 17.1656 8.21502 13.6811 10.7278C10.392 13.0996 7.85371 16.3025 6.34263 19.9761C6.19481 20.3356 6.38625 20.7406 6.75305 20.8677C7.10775 20.9906 7.49439 20.807 7.63754 20.4595C9.05455 17.0203 11.4323 14.0216 14.5124 11.8005C17.7788 9.44507 21.691 8.06799 25.7624 7.84065C29.8338 7.61331 33.8846 8.54573 37.4109 10.5219C40.9373 12.4981 43.7835 15.4308 45.5957 18.9553C47.4078 22.4797 48.1058 26.4404 47.6028 30.3445C47.0998 34.2487 45.4181 37.924 42.7668 40.9134C40.1156 43.9028 36.6117 46.0742 32.6913 47.1576C28.9821 48.1825 25.0548 48.1908 21.3481 47.1879C20.9958 47.0926 20.6261 47.2844 20.5127 47.6318Z" fill="white"/>
</mask>
<g mask="url(#mask1_476_1504)">
<path d="M20.5127 47.6318C20.3958 47.9898 20.5954 48.3751 20.9585 48.4736C24.917 49.5474 29.1119 49.5399 33.0736 48.4452C37.2558 47.2895 40.9936 44.9731 43.8218 41.7842C46.6501 38.5953 48.4441 34.6746 48.9806 30.5098C49.5172 26.345 48.7726 22.1199 46.8395 18.3602C44.9064 14.6004 41.8701 11.4718 38.1083 9.36376C34.3466 7.25565 30.0253 6.26099 25.6821 6.50352C21.3389 6.74604 17.1656 8.21502 13.6811 10.7278C10.392 13.0996 7.85371 16.3025 6.34263 19.9761C6.19481 20.3356 6.38625 20.7406 6.75305 20.8677C7.10775 20.9906 7.49439 20.807 7.63754 20.4595C9.05455 17.0203 11.4323 14.0216 14.5123 11.8005C17.7788 9.44507 21.691 8.06799 25.7624 7.84065C29.8338 7.61331 33.8846 8.54573 37.4109 10.5219C40.9373 12.4981 43.7835 15.4308 45.5957 18.9553C47.4078 22.4797 48.1058 26.4404 47.6028 30.3445C47.0998 34.2487 45.4181 37.924 42.7668 40.9134C40.1156 43.9028 36.6117 46.0742 32.6913 47.1576C28.9821 48.1825 25.0548 48.1908 21.3481 47.1879C20.9958 47.0926 20.6261 47.2844 20.5127 47.6318Z" stroke="white" stroke-width="4"/>
</g>
<path d="M43.601 28.1994C43.601 37.2028 36.0269 44.55 26.6228 44.55C17.2186 44.55 9.64453 37.2028 9.64453 28.1994C9.64453 19.1961 17.2186 11.8489 26.6228 11.8489C36.0269 11.8489 43.601 19.1961 43.601 28.1994Z" stroke="white" stroke-width="2"/>
<path d="M34.7011 30.4832C33.404 34.9343 31.285 38.6683 28.9452 41.1124C26.5773 43.5859 24.1489 44.5884 22.1588 44.0486C20.1688 43.5089 18.6374 41.4325 17.9526 38.1311C17.2758 34.8687 17.4842 30.6167 18.7814 26.1656C20.0786 21.7145 22.1976 17.9805 24.5374 15.5364C26.9051 13.0628 29.3337 12.0604 31.3237 12.6001C33.3138 13.1399 34.8451 15.2163 35.5299 18.5177C36.2067 21.78 35.9983 26.0321 34.7011 30.4832Z" stroke="white" stroke-width="2"/>
<path d="M24.1278 35.4751C19.6562 33.99 15.9677 31.751 13.6114 29.3672C11.22 26.9479 10.3637 24.568 11.026 22.7122C11.6884 20.8563 13.8819 19.4893 17.3102 19.0028C20.6883 18.5235 25.0238 18.9496 29.4953 20.4347C33.9669 21.9197 37.6554 24.1587 40.0117 26.5425C42.403 28.9618 43.2594 31.3417 42.5971 33.1976C41.9347 35.0534 39.7412 36.4204 36.3128 36.9069C32.9348 37.3862 28.5993 36.9601 24.1278 35.4751Z" stroke="white" stroke-width="2"/>
<path d="M11.1694 22.859L42.5709 32.7371" stroke="white" stroke-width="2"/>
<path d="M21.7905 43.7782L32.1987 12.2278" stroke="white" stroke-width="2"/>
<path d="M39.8253 5.42783L32.3784 5.01265L33.9454 1L39.8253 5.42783Z" fill="white"/>
<path d="M5.18907 26.4885L5.10107 19.293L9.35938 20.5222L5.18907 26.4885Z" fill="white"/>
</svg>
